<?xml version="1.0" standalone="no"?>
<!DOCTYPE svg PUBLIC "-//W3C//DTD SVG 20010904//EN"
 "http://www.w3.org/TR/2001/REC-SVG-20010904/DTD/svg10.dtd">
<svg version="1.0" xmlns="http://www.w3.org/2000/svg"
 width="790.000000pt" height="790.000000pt" viewBox="0 0 790.000000 790.000000"
 preserveAspectRatio="xMidYMid meet">
<metadata>
Created by potrace 1.14, written by Peter Selinger 2001-2017
</metadata>
<g transform="translate(0.000000,790.000000) scale(0.100000,-0.100000)"
fill="#000000" stroke="none">
<path d="M3930 7673 c-8 -3 -26 -10 -40 -16 -14 -6 -28 -10 -31 -9 -15 3 -101
-83 -119 -119 -27 -52 -47 -144 -44 -196 2 -24 -1 -43 -6 -43 -17 0 -78 -73
-97 -115 -30 -67 -37 -69 -144 -50 -25 5 -40 3 -50 -7 -9 -9 -22 -12 -34 -8
-11 4 -32 4 -48 -1 -15 -4 -28 -7 -30 -6 -1 0 -14 -7 -29 -17 -32 -21 -36 -36
-11 -36 11 0 4 -11 -23 -35 -38 -34 -38 -35 -20 -50 11 -8 25 -15 32 -15 8 0
3 -16 -14 -41 -25 -38 -37 -109 -23 -134 3 -5 7 -18 8 -29 3 -17 -2 -18 -49
-11 -29 3 -62 6 -73 5 -19 -1 -32 -1 -57 1 -21 2 -151 -11 -168 -16 -8 -2 -31
-7 -50 -9 -38 -5 -73 -12 -98 -20 -82 -25 -246 -23 -300 3 -10 4 -35 16 -57
27 -33 15 -174 103 -210 132 -31 24 -113 72 -123 72 -7 0 -12 4 -12 8 0 14
-53 12 -76 -3 -33 -21 -47 -76 -41 -158 3 -57 13 -90 45 -157 22 -47 51 -98
64 -115 35 -46 156 -163 189 -182 16 -10 29 -21 29 -25 0 -4 5 -8 12 -8 6 0
19 -7 29 -16 50 -45 260 -146 352 -170 4 -1 8 -2 10 -4 16 -13 176 -19 242 -8
50 8 164 50 210 77 24 14 35 16 35 8 0 -7 -4 -17 -9 -22 -20 -21 -51 -122 -51
-168 0 -54 25 -225 40 -277 12 -43 13 -53 1 -45 -5 3 -12 1 -16 -5 -4 -6 -10
-8 -15 -5 -5 3 -11 1 -15 -5 -4 -6 -11 -8 -16 -4 -5 3 -16 1 -23 -5 -7 -6 -21
-12 -32 -14 -18 -3 -30 -8 -101 -39 -16 -6 -30 -12 -33 -13 -3 0 -16 -7 -30
-15 -14 -7 -25 -12 -25 -10 0 2 -19 -7 -41 -18 -23 -12 -44 -18 -48 -15 -3 4
-6 1 -6 -5 0 -9 -16 -18 -45 -24 -5 -1 -16 -8 -23 -15 -8 -7 -18 -11 -23 -8
-5 4 -9 2 -9 -4 0 -5 -18 -17 -40 -27 -22 -10 -40 -22 -40 -27 0 -4 -4 -5 -10
-2 -5 3 -10 2 -10 -3 0 -8 -55 -38 -55 -30 0 1 -11 -7 -25 -19 -13 -13 -27
-23 -31 -23 -4 0 -15 -8 -25 -17 -10 -10 -21 -18 -26 -18 -5 0 -13 -7 -18 -15
-5 -8 -10 -11 -10 -6 0 5 -8 -1 -19 -12 -10 -12 -23 -22 -29 -22 -6 0 -18 -10
-26 -22 -9 -12 -16 -19 -16 -14 0 5 -9 -1 -20 -14 -11 -13 -20 -20 -20 -16 0
4 -11 -4 -24 -18 -13 -15 -26 -26 -29 -26 -7 0 -45 -36 -153 -143 -95 -93
-146 -147 -141 -147 3 0 -12 -18 -32 -39 -49 -54 -61 -69 -61 -78 0 -5 -9 -14
-20 -21 -11 -7 -20 -17 -20 -23 0 -10 -10 -24 -42 -60 -10 -10 -18 -26 -18
-34 0 -8 -4 -15 -9 -15 -6 0 -25 -27 -44 -60 -18 -33 -37 -57 -42 -53 -4 5 -5
3 -2 -3 3 -6 -5 -27 -18 -46 -13 -20 -21 -38 -18 -42 4 -3 1 -6 -6 -6 -7 0 -9
-4 -6 -10 3 -6 2 -10 -3 -10 -5 0 -20 -25 -33 -55 -13 -30 -27 -55 -32 -55 -4
0 -5 -4 -2 -10 3 -5 1 -10 -4 -10 -6 0 -10 -3 -9 -7 3 -13 -13 -53 -21 -53 -7
0 -9 -7 -13 -49 -1 -11 -6 -17 -10 -15 -4 3 -8 -4 -8 -15 0 -12 -5 -21 -12
-21 -6 0 -9 -3 -5 -6 3 -3 -6 -36 -20 -72 -14 -37 -26 -71 -27 -77 -1 -5 -4
-14 -8 -20 -9 -15 -22 -78 -19 -92 1 -7 -4 -13 -10 -13 -7 0 -10 -2 -7 -6 3
-3 0 -25 -7 -49 -8 -24 -11 -46 -8 -49 3 -3 1 -12 -6 -20 -6 -7 -13 -35 -15
-60 -2 -26 -7 -50 -10 -53 -3 -4 -6 -19 -6 -35 0 -15 -4 -28 -10 -28 -5 0 -10
-5 -10 -11 0 -5 4 -7 10 -4 14 9 -6 -43 -23 -58 -7 -7 -37 -32 -67 -57 -92
-74 -210 -192 -242 -242 -17 -27 -35 -48 -40 -48 -4 0 -8 -4 -8 -9 0 -5 -12
-35 -27 -67 -33 -72 -33 -73 -38 -154 -2 -49 3 -84 23 -145 14 -44 27 -84 28
-90 2 -5 19 -55 39 -110 71 -193 71 -196 51 -210 -23 -17 -25 -89 -3 -130 8
-17 32 -47 52 -68 21 -20 32 -37 26 -37 -6 0 -15 -8 -18 -17 -14 -37 -26 -41
-68 -26 -73 26 -85 38 -85 91 1 26 7 61 14 77 10 25 10 32 -1 40 -10 8 -7 19
17 55 38 57 40 79 5 56 -13 -9 -38 -16 -55 -16 -21 0 -30 -5 -30 -16 0 -13 -3
-14 -13 -5 -8 6 -12 23 -9 41 5 33 4 34 -31 21 -19 -7 -34 -5 -63 10 -38 19
-38 19 -59 -1 -23 -22 -59 -26 -98 -11 -22 9 -26 7 -31 -15 -4 -16 -11 -22
-19 -17 -7 4 -31 8 -55 8 -40 0 -44 -3 -49 -28 -4 -18 -14 -29 -30 -33 -18 -5
-22 -11 -18 -25 5 -16 1 -19 -22 -19 -25 0 -30 -5 -42 -46 -14 -46 -20 -51
-95 -78 -18 -6 -18 -8 3 -30 26 -28 24 -56 -4 -71 -13 -7 -19 -18 -17 -33 2
-15 -5 -31 -19 -43 -12 -10 -20 -21 -18 -23 56 -49 197 -104 289 -112 60 -6
67 -9 49 -18 -37 -19 -50 -47 -36 -76 17 -33 48 -40 40 -9 -6 21 -4 22 42 16
26 -4 56 -7 66 -7 10 0 36 -17 57 -38 35 -34 60 -80 142 -257 64 -138 64 -136
64 -242 1 -102 -1 -111 -19 -94 -32 29 -225 76 -225 54 0 -14 71 -187 81 -197
17 -18 9 -25 -29 -23 -58 2 -142 -14 -142 -26 1 -16 88 -110 123 -132 l27 -18
-47 -22 c-27 -12 -56 -33 -66 -45 -13 -15 -26 -21 -42 -17 -22 4 -23 3 -10
-16 29 -42 78 -50 321 -51 l121 -1 97 48 97 48 47 -16 c26 -10 87 -18 137 -20
98 -4 165 13 275 70 30 15 69 35 85 43 56 28 58 32 29 63 l-27 28 55 -4 c31
-2 93 -15 139 -29 199 -60 327 -78 567 -80 119 -1 146 -4 155 -17 7 -9 18 -14
25 -12 6 3 12 0 12 -6 0 -6 7 -11 15 -11 8 0 15 -5 15 -11 0 -5 4 -8 9 -4 5 3
12 1 15 -4 10 -15 237 -122 247 -115 4 2 10 -3 13 -12 3 -8 11 -12 16 -9 6 4
22 0 35 -9 13 -9 31 -16 40 -16 8 0 23 -4 33 -9 25 -14 56 -24 65 -23 4 1 7
-2 7 -7 0 -5 9 -7 20 -4 11 3 20 1 20 -4 0 -5 6 -10 13 -11 21 -1 65 -12 92
-22 14 -5 25 -7 25 -4 0 4 7 1 15 -6 8 -7 15 -10 15 -7 0 3 23 -1 50 -8 28 -7
50 -11 50 -8 0 3 6 1 13 -4 6 -5 22 -8 35 -7 12 0 22 -2 22 -6 0 -4 16 -6 35
-5 19 1 35 -3 35 -8 0 -5 8 -3 17 4 11 9 14 10 9 2 -5 -9 0 -13 16 -12 13 1
48 -2 78 -6 30 -3 71 -7 90 -9 19 -1 41 -5 48 -9 6 -5 12 -4 12 1 0 5 7 9 15
9 8 0 15 -5 15 -10 0 -5 7 -4 15 3 9 7 15 8 15 2 0 -11 18 -11 38 1 7 5 12 3
12 -3 0 -8 6 -7 21 1 15 8 19 8 15 0 -5 -8 0 -8 18 -1 18 6 26 6 26 -1 0 -6 6
-7 17 0 10 5 26 5 40 0 13 -5 25 -4 28 1 4 6 14 6 27 -1 13 -7 18 -7 14 -1 -4
7 14 10 53 9 32 -1 57 1 55 4 -2 4 9 7 24 6 32 0 147 18 147 23 0 1 18 3 40 5
22 2 69 10 104 19 36 8 68 13 72 10 4 -2 10 0 13 5 3 5 23 12 43 16 21 4 44
11 51 17 6 6 12 7 12 2 0 -5 5 -2 10 6 7 11 10 11 10 2 0 -10 6 -10 28 2 34
18 63 29 82 31 8 0 31 8 50 16 71 32 95 42 108 45 21 4 227 107 233 117 3 5 9
9 12 9 18 0 47 11 47 18 0 5 10 12 23 16 12 4 25 12 29 18 5 7 37 10 95 7 291
-13 476 8 700 80 79 26 174 33 166 13 -3 -8 -11 -14 -18 -14 -7 0 -15 -6 -18
-14 -4 -9 19 -27 66 -54 65 -36 91 -49 192 -92 52 -22 201 -21 275 2 l64 20
66 -35 c117 -62 152 -69 313 -63 179 8 210 13 242 38 30 23 33 38 5 31 -12 -3
-34 7 -62 30 -24 20 -55 38 -71 42 l-27 7 48 38 c26 21 62 56 79 78 l33 41
-35 11 c-20 7 -63 12 -95 13 -33 0 -60 3 -60 6 0 4 9 17 20 31 11 14 20 30 20
36 0 6 14 44 30 84 l30 73 -54 -6 c-44 -4 -111 -27 -191 -63 -6 -3 -10 33 -9
98 l1 103 60 131 c34 72 73 154 87 183 29 57 91 121 117 121 9 0 38 3 64 7 46
6 48 5 42 -16 -8 -32 24 -23 41 11 16 33 1 63 -38 77 -24 9 -23 9 11 10 94 2
245 53 313 106 19 15 19 15 -3 39 -15 16 -22 33 -18 45 3 13 -1 21 -14 24 -30
8 -34 35 -10 68 l22 30 -35 14 c-20 8 -40 15 -45 15 -6 0 -18 23 -28 50 -15
43 -21 50 -44 50 -22 0 -26 4 -22 20 3 11 0 20 -6 20 -18 0 -51 38 -45 53 3
10 -7 13 -43 12 -27 -1 -54 -4 -60 -8 -7 -4 -15 2 -20 17 -7 21 -11 22 -33 13
-35 -14 -71 -9 -97 16 -22 19 -24 19 -42 3 -22 -20 -44 -23 -85 -12 -28 7 -29
6 -23 -28 4 -25 1 -36 -9 -40 -9 -3 -14 1 -14 13 0 14 -6 17 -24 14 -13 -3
-38 3 -56 12 -32 16 -32 16 -25 -7 4 -13 19 -38 32 -57 19 -24 22 -35 14 -41
-10 -5 -10 -17 0 -51 21 -70 15 -110 -18 -136 -28 -23 -89 -41 -100 -29 -3 3
-11 -1 -17 -9 -12 -17 -73 -22 -123 -11 -54 12 -38 27 24 23 32 -2 65 -2 75 1
25 6 22 31 -4 41 l-23 8 22 7 c29 9 77 71 92 119 14 42 7 93 -15 101 -8 3 -14
16 -14 29 0 12 -9 39 -19 60 l-19 37 50 142 c28 79 56 163 63 188 14 53 12
134 -6 187 -18 57 -71 165 -89 183 -3 3 -23 28 -45 55 -22 28 -42 51 -46 53
-3 1 -32 27 -65 58 -32 30 -87 78 -121 106 -36 29 -63 59 -63 70 0 10 -5 18
-10 18 -7 0 -7 6 0 20 8 15 8 20 -1 20 -6 0 -9 6 -6 14 3 8 3 17 -1 21 -3 3
-7 16 -9 28 -1 12 -5 38 -8 57 -3 19 -6 41 -7 48 -1 6 -4 12 -8 12 -4 0 -7 8
-7 18 1 9 -5 37 -12 61 -7 24 -13 52 -14 62 -1 11 -5 19 -9 19 -4 0 -8 10 -8
23 0 13 -3 27 -7 31 -5 4 -8 11 -9 14 -3 24 -29 102 -34 102 -3 0 -6 8 -7 18
-1 10 -15 46 -31 80 -17 34 -29 62 -27 62 6 0 -103 210 -116 227 -6 7 -8 13
-3 13 4 0 -1 10 -12 23 -11 12 -29 39 -39 60 -11 20 -23 37 -27 37 -5 0 -8 7
-8 15 0 8 -5 15 -11 15 -5 0 -7 5 -4 10 3 6 2 10 -4 10 -5 0 -12 8 -15 18 -3
9 -19 33 -36 52 -16 19 -30 41 -30 48 0 7 -4 10 -10 7 -5 -3 -10 1 -10 10 0 8
-7 18 -15 21 -8 4 -13 10 -10 14 3 4 -2 10 -10 14 -8 3 -15 12 -15 19 0 7 -11
20 -25 27 -13 7 -23 16 -22 19 2 8 -41 57 -123 140 -36 36 -63 70 -62 76 2 5
1 7 -3 3 -7 -7 -37 16 -95 75 -20 20 -41 37 -46 37 -5 0 -16 9 -24 20 -8 11
-18 20 -22 20 -7 0 -15 5 -76 57 -15 13 -33 23 -40 23 -7 0 -10 5 -7 10 3 6
-1 10 -9 10 -9 0 -16 5 -16 10 0 6 -6 10 -13 10 -7 0 -23 9 -35 20 -12 11 -24
20 -28 20 -4 0 -21 10 -38 23 -17 12 -48 31 -68 42 -21 11 -38 23 -38 28 0 4
-4 6 -9 2 -5 -3 -17 3 -27 12 -10 10 -19 17 -21 16 -4 -3 -67 24 -76 34 -8 8
-12 9 -39 12 -7 1 3 17 23 36 60 56 78 107 69 190 -4 39 -11 83 -15 100 l-8
29 42 -33 c46 -37 58 -34 63 16 l3 33 30 -16 c80 -42 263 -96 380 -111 108
-14 297 -9 395 10 70 14 90 20 90 28 0 5 3 8 8 7 11 -4 142 55 142 64 0 4 5 8
10 8 14 0 32 14 102 84 213 212 242 436 68 513 -47 21 -135 24 -190 6 -45 -14
-128 -39 -165 -49 -68 -18 -194 -35 -280 -38 -112 -3 -241 20 -309 56 -23 11
-49 25 -59 29 -9 5 -43 19 -75 30 -31 11 -64 23 -72 26 -8 3 -24 8 -35 10 -11
3 -27 6 -35 8 -8 2 -18 4 -22 4 -4 1 -5 10 -3 22 6 29 -12 69 -31 69 -11 0
-14 5 -9 18 22 56 9 136 -25 147 -13 4 -19 19 -23 53 -6 64 -30 132 -46 132
-4 0 -15 14 -25 31 l-18 31 50 47 c28 26 57 48 64 49 7 1 32 4 56 7 31 4 41 2
36 -7 -5 -7 -3 -8 5 -3 8 4 22 -1 35 -14 11 -11 33 -32 49 -46 15 -14 27 -29
27 -33 0 -4 9 -13 21 -20 19 -12 19 -12 8 10 -11 21 -11 22 4 10 13 -11 16
-10 19 10 2 13 0 46 -5 73 -12 79 -16 109 -19 143 -1 18 -6 32 -10 32 -4 0 -8
7 -8 17 0 16 -27 55 -71 104 -61 66 -143 90 -288 85 -112 -4 -137 -8 -170 -26
-12 -6 -21 -8 -21 -4 0 3 -6 1 -13 -5 -8 -6 -17 -8 -20 -4 -4 3 -7 1 -7 -5 0
-7 -6 -12 -12 -12 -17 -1 -89 -67 -113 -103 -11 -17 -24 -26 -34 -23 -41 13
-147 4 -182 -15 -10 -5 -19 -7 -19 -5 0 3 -19 -2 -42 -10 -24 -9 -51 -17 -61
-19 -9 -2 -22 -7 -28 -11 -20 -12 -157 -13 -183 -1 -58 27 -55 121 4 152 25
13 33 13 70 0 24 -8 45 -15 47 -15 6 0 0 53 -8 65 -4 6 -10 25 -14 42 -7 34
-71 103 -121 130 -29 16 -145 26 -174 16z m2947 -5515 c-3 -8 -6 -5 -6 6 -1
11 2 17 5 13 3 -3 4 -12 1 -19z m-5869 -178 c10 -1 -2 -19 -15 -22 -25 -6 -74
12 -67 24 5 8 22 7 82 -2z"/>
</g>
</svg>
